PathFileType	4	(X/Y/Z)	Walk10.trc
DataRate	CameraRate	NumFrames	NumMarkers	Units	OrigDataRate	OrigDataStartFrame	OrigNumFrames
200.000000	200.000000	4	57	mm	200.000000	667	868
Frame#	Times		RCAR		LMT5		RFHD		LTB3		RUA1		LTB2		RASI		LTB4		RElbow		RFA1		LACR1		LLFC		LUA1		LTH1		STRN		RACR1		RTH4		LToe		RTH3		RWRU		LCAR		RBHD		LASI		LTH3		LFHD		RLFC		CLAV		RBack		RTH2		C7		LTH4		LTH2		LElbow		RTB3		RTH1		LWRR		RTB4		RMT1		LFA1		LPSI		RLMAL		LWRU		LTB1		RPSI		RTB1		RTB2		LElbowM		RWRR		LBHD		LMT1		T10		RCAL		RMMAL		LMMAL		LLMAL		LCAL		RElbowM
			X1	Y1	Z1	X2	Y2	Z2	X3	Y3	Z3	X4	Y4	Z4	X5	Y5	Z5	X6	Y6	Z6	X7	Y7	Z7	X8	Y8	Z8	X9	Y9	Z9	X10	Y10	Z10	X11	Y11	Z11	X12	Y12	Z12	X13	Y13	Z13	X14	Y14	Z14	X15	Y15	Z15	X16	Y16	Z16	X17	Y17	Z17	X18	Y18	Z18	X19	Y19	Z19	X20	Y20	Z20	X21	Y21	Z21	X22	Y22	Z22	X23	Y23	Z23	X24	Y24	Z24	X25	Y25	Z25	X26	Y26	Z26	X27	Y27	Z27	X28	Y28	Z28	X29	Y29	Z29	X30	Y30	Z30	X31	Y31	Z31	X32	Y32	Z32	X33	Y33	Z33	X34	Y34	Z34	X35	Y35	Z35	X36	Y36	Z36	X37	Y37	Z37	X38	Y38	Z38	X39	Y39	Z39	X40	Y40	Z40	X41	Y41	Z41	X42	Y42	Z42	X43	Y43	Z43	X44	Y44	Z44	X45	Y45	Z45	X46	Y46	Z46	X47	Y47	Z47	X48	Y48	Z48	X49	Y49	Z49	X50	Y50	Z50	X51	Y51	Z51	X52	Y52	Z52	X53	Y53	Z53	X54	Y54	Z54	X55	Y55	Z55	X56	Y56	Z56	X57	Y57	Z57

667	3.335	68.107	731.62	298.23	-168.25	39.885	-105.01	278.35	1555.7	33.529	-117.62	186.91	-68.872	95.977	1156.2	246.95	-76.941	266.24	-120.79	259.79	953.06	151.23	-61.525	251.04	-64.014	33.169	1041.2	262.74	13.017	896.82	278.28	143.83	1356.9	-148.45	35.254	466.15	-132.42	181.45	1183.4	-243.29	126.76	733.75	-222.08	263.24	1208.2	8.4535	132.04	1341.4	160.77	250.68	647.97	197.85	-77.146	20.398	-59.4	278.61	570.07	175.01	14.516	787.28	287.89	402.81	854.44	-226.28	123.27	1534.5	79.043	253.93	931.82	-141.08	73.111	583.31	-161.27	261.1	1553.1	-59.669	304.89	492.15	148.47	204.4	1312.1	3.4343	7.8288	1288.9	107.35	301.34	672.5	177.23	64.447	1390.7	10.893	99.84	660.55	-186.07	155.52	649.53	-170.28	181.24	1057.8	-280.31	405.97	181.74	80.176	223.8	728.23	220.25	355.89	884.49	-195.88	395.35	266.28	75.162	505.13	45.759	52.345	255.34	937.84	-274.58	7.6914	937.95	-35.004	386.59	62.275	107.25	334.78	851.77	-256.99	-2.1015	314.4	-61.997	9.9496	941.22	54.675	383.27	353.1	77.328	372.31	265.43	133.93	137.33	1016.3	-219.58	72.972	784.76	247.81	102.31	1522.7	-61.721	-139.17	35.946	-28.629	-5.0202	1123.6	-6.975	328.07	23.566	67.74	402.86	72.734	24.995	-203.81	119.33	-12.265	-216.71	125.33	-96.174	-284.19	136.35	-61.922	28.966	1015.2	168.06
668	3.34	75.653	731.84	299.39	-167.1	41.383	-104.78	284.64	1556.3	34.466	-112.28	188.55	-69.231	103.15	1156.4	247.95	-70.224	267.25	-121.05	266.88	953.9	151.99	-55.054	251.67	-64.293	40.496	1041.4	263.86	20.481	897.02	279.51	150.22	1357.3	-147.44	44.906	465.28	-132.16	186.92	1183.6	-242.33	134.65	733.4	-221.13	269.86	1208.8	9.6036	138.65	1341.7	161.8	257.12	648.8	198.44	-77.659	20.338	-59.293	284.4	570.7	175.63	22.055	787.52	289.25	406.39	853.02	-225.68	129.64	1535	80.159	261.19	932.17	-139.56	82.008	582.51	-160.73	267.3	1553.6	-58.708	310.92	492.56	149.04	210.9	1312.6	4.4618	14.48	1289.2	108.5	308.04	672.89	178.21	70.915	1391.1	12.039	108.23	660	-185.28	163.95	649.31	-169.39	186.07	1057.9	-279.22	408.56	181.09	79.807	230.94	729.27	220.97	359.58	883.28	-195.21	398.84	265.74	74.836	505.88	43.573	51.698	259.41	937.46	-273.66	14.646	938.08	-34.619	387.66	61.965	107.1	338.27	850.86	-256.37	5.4684	313.95	-62.204	16.671	941.68	55.133	387.73	352.68	77.039	376.41	265.21	133.85	141.97	1016.7	-218.39	80.333	784.97	248.94	108.54	1523.1	-60.595	-138.43	36.544	-28.649	1.5538	1124	-6.1632	328.38	24.092	67.838	403.75	72.03	24.699	-199.64	122.58	-12.809	-212.52	128.85	-96.591	-279.31	141.84	-62.058	36.207	1015.4	169.2
669	3.345	83.307	732.14	300.57	-165.8	42.986	-104.52	290.93	1556.9	35.41	-106.58	190.23	-69.617	110.33	1156.8	248.94	-63.175	268.29	-121.33	273.93	954.82	152.72	-48.236	252.32	-64.605	47.844	1041.6	265	27.997	897.28	280.75	156.61	1357.8	-146.44	54.873	464.35	-131.93	192.34	1183.8	-241.4	142.62	733.05	-220.16	276.46	1209.5	10.751	145.26	1342.1	162.82	263.4	649.66	199.09	-78.175	20.264	-59.184	290.02	571.36	176.33	29.682	787.82	290.62	409.8	851.56	-225.14	136.01	1535.4	81.274	268.42	932.6	-138.03	91.128	581.64	-160.22	273.51	1554.3	-57.738	316.81	493.01	149.63	217.41	1313.2	5.476	21.127	1289.5	109.63	314.6	673.3	179.3	77.383	1391.5	13.166	116.76	659.43	-184.48	172.53	649.1	-168.49	190.85	1058	-278.14	410.97	180.49	79.521	237.92	730.34	221.74	363.15	882.06	-194.59	402.17	265.24	74.62	506.5	41.671	51.114	263.35	937.1	-272.77	21.567	938.24	-34.269	388.6	61.705	106.96	341.58	849.94	-255.77	13.378	313.5	-62.461	23.364	942.18	55.562	392.04	352.29	76.884	380.25	264.98	133.84	146.55	1017.2	-217.19	87.794	785.26	250.08	114.78	1523.6	-59.472	-137.55	37.234	-28.655	8.1067	1124.4	-5.3628	328.65	24.559	67.939	404.52	71.408	24.44	-195.08	125.89	-13.36	-207.98	132.46	-97.005	-273.95	147.44	-62.134	43.481	1015.6	170.34
670	3.35	91.066	732.52	301.78	-164.32	44.699	-104.23	297.23	1557.6	36.362	-100.52	191.96	-70.032	117.53	1157.2	249.92	-55.789	269.36	-121.63	280.93	955.82	153.45	-41.064	252.99	-64.951	55.207	1042	266.13	35.564	897.61	281.99	163	1358.3	-145.45	65.144	463.37	-131.73	197.7	1184.1	-240.5	150.65	732.7	-219.17	283.05	1210.2	11.891	151.87	1342.6	163.81	269.51	650.55	199.81	-78.66	20.171	-59.079	295.48	572.06	177.09	37.397	788.19	291.98	413.05	850.06	-224.68	142.39	1535.9	82.387	275.61	933.09	-136.5	100.46	580.74	-159.74	279.73	1554.9	-56.762	322.53	493.48	150.24	223.91	1313.8	6.4739	27.769	1289.8	110.73	321	673.74	180.49	83.847	1392.1	14.273	125.43	658.82	-183.68	181.25	648.92	-167.58	195.57	1058.3	-277.07	413.21	179.93	79.324	244.71	731.44	222.56	366.61	880.84	-194.02	405.33	264.76	74.522	507.01	40.045	50.592	267.18	936.77	-271.9	28.453	938.43	-33.95	389.4	61.488	106.84	344.71	848.99	-255.19	21.629	313.03	-62.766	30.023	942.72	55.962	396.19	351.92	76.871	383.83	264.75	133.91	151.09	1017.8	-215.98	95.354	785.63	251.25	121.03	1524.1	-58.355	-136.5	38.033	-28.647	14.637	1124.8	-4.5708	328.88	24.965	68.04	405.17	70.867	24.216	-190.12	129.24	-13.918	-203.05	136.13	-97.422	-268.12	153.13	-62.155	50.783	1016	171.49
